<svg xmlns="http://www.w3.org/2000/svg" viewBox="0 0 73.54 44.55"><defs><style>.cls-1,.cls-2,.cls-3,.cls-4,.cls-5,.cls-6,.cls-7,.cls-8{stroke:#26dafd;stroke-miterlimit:10;stroke-width:0.1px;}.cls-2{fill:#101f25;}.cls-3{fill:#101d23;}.cls-4{fill:#101820;}.cls-5{fill:#101a21;}.cls-6{fill:#101921;}.cls-7{fill:#101a22;}.cls-8{fill:#101b22;}</style></defs><g id="Layer_2" data-name="Layer 2"><g id="Layer_1-2" data-name="Layer 1"><path class="cls-1" d="M38,20.75a.46.46,0,0,1,.6.22h0a2.76,2.76,0,0,1-.79,3.31l0,0a.46.46,0,0,1-.64,0,.44.44,0,0,1,0-.63l.06-.05,0,0a1.85,1.85,0,0,0,.53-2.23.46.46,0,0,1,.22-.6Z"/><path class="cls-1" d="M49.61,23H39.7a.45.45,0,0,1-.45-.45.45.45,0,0,1,.45-.45h9.46v-1.8H39.7a.45.45,0,0,1,0-.9h.9V16.27h-.9a.45.45,0,0,1,0-.9h9.46V1H28.44v6.1l3.19.34,3.79-.28a.57.57,0,0,1,.22,0l.7.33-.79-.93h0A5.39,5.39,0,0,1,34.65,4a5.41,5.41,0,0,0-2.9,2.57.45.45,0,0,1-.6.2.44.44,0,0,1-.2-.61h0A6.29,6.29,0,0,1,35,3h0a6.37,6.37,0,0,1,1.51-.19,6.27,6.27,0,0,1,2.93.73h0a6.33,6.33,0,0,1,2.31,2.08v0A6.29,6.29,0,0,1,40,14.31l-.13.09a.51.51,0,0,1-.24.07.45.45,0,0,1-.45-.45.25.25,0,0,1,0-.12l-.44-.39-1,3.32-1.9,7.77a1.35,1.35,0,0,1-1.63,1l-.17-.06-.51-.2a1.3,1.3,0,0,1-1,.5h-.09l-5.6-.35a2,2,0,0,1-1.8,1.14h-.28a.46.46,0,0,1-.45-.45l0-3.45a.44.44,0,0,1,.42-.45l1.48-.1,3.93-.43c-.13-4.6.83-6.67,1-7L32.38,11,31,10.47l-2.57-.65v5.55h.9a.45.45,0,1,1,0,.9H28a.45.45,0,0,1-.45-.45V9.59l-.07,0-.75.41a.91.91,0,0,1-1.23-.36.93.93,0,0,1-.1-.47l-.14,0a1,1,0,0,1-1-1.7,2.42,2.42,0,0,1,2.6-.67l.25.08.48.06V.5A.45.45,0,0,1,28,.05H49.61a.45.45,0,0,1,.45.45V15.82a.45.45,0,0,1-.45.45H41.5v3.15h8.11a.45.45,0,0,1,.45.45v2.7A.45.45,0,0,1,49.61,23ZM35.54,3.75a4.53,4.53,0,0,0,.52,1.94,7.9,7.9,0,0,0,2.55-1.63,5.45,5.45,0,0,0-2.06-.41A5.67,5.67,0,0,0,35.54,3.75Zm3.87.73a7.53,7.53,0,0,1-2.78,1.95l.59.69a.48.48,0,0,1,.08.45L37,8.46a.51.51,0,0,0,.33.64.5.5,0,0,0,.62-.29l.33-.89a.45.45,0,0,1,.32-.28L40,7.27h.06c.2,0,.56-.8.73-1.16l.09-.2A5.24,5.24,0,0,0,39.41,4.48ZM34.47,24.7a.45.45,0,0,0,.58-.25s0,0,0-.06l1.46-6-1,1.16L34,24.52Zm-9.19,1a1.14,1.14,0,0,0,.87-.76l-.24-1.85-.65,0Zm5.46-2.13h0a.46.46,0,0,1-.45-.42l0-.51L26.81,23l.2,1.56,5.55.35a.44.44,0,0,0,.46-.31l1.1-3.57a.45.45,0,0,1-.4-.09.46.46,0,0,1,0-.64h0l1.09-1.25h0l1.85-2.13-4.75-1.48c-.32.81-1,3.16-.71,7.64A.45.45,0,0,1,30.74,23.58Zm2.35-13.3a.44.44,0,0,1,.27.56l-1.18,3.78,4.92,1.53,1.17-4.06a.45.45,0,0,1,.87.25l-.07.22.84.73a5.44,5.44,0,0,0,.86-.87l-1.66-2.37-.71-.4a1.39,1.39,0,0,1-2.33-1.3L35.36,8,32,8.26l-.33,1.49ZM26.91,7.8l-.1,0-.3-.1a1.52,1.52,0,0,0-1.62.42.14.14,0,0,0,0,.19.14.14,0,0,0,.13,0l.74-.2a.46.46,0,0,1,.55.33.59.59,0,0,1,0,.14l0,.6.91-.49a.42.42,0,0,1,.33,0l3.28.83.27-1.25Z"/><path class="cls-1" d="M24.39,10.3v.06a1.85,1.85,0,0,0,1.3,1.87.46.46,0,0,1,.3.57.44.44,0,0,1-.43.31.34.34,0,0,1-.14,0,2.73,2.73,0,0,1-1.93-2.78v-.06A.44.44,0,0,1,24,9.83.45.45,0,0,1,24.39,10.3Z"/><path class="cls-2" d="M1.74,39.42a1.81,1.81,0,0,1,1.62-.71c.7,0,1.4,0,2.1,0A3.53,3.53,0,0,0,8,38.09c-.21.79-.7,1.16-1.7,1.2-.78,0-1.56,0-2.34,0A16.15,16.15,0,0,0,1.74,39.42Z"/><path class="cls-3" d="M28.39,39.92a1.18,1.18,0,0,1,1.26-1.17c1.94,0,3.88,0,5.82,0,.22,0,.49,0,.46.32s-.33.3-.57.3c-1.7,0-3.4,0-5.1,0A2.22,2.22,0,0,0,28.39,39.92Z"/><path class="cls-4" d="M35.54,41.37c-1.14,0-2.27,0-3.41,0-.29,0-.72.12-.7-.41s.41-.33.68-.34c1.13,0,2.27,0,3.4,0a1.57,1.57,0,1,0,0-3.12c-1.1,0-2.21,0-3.32,0-.29,0-.73.14-.73-.38s.45-.36.73-.37c1.16,0,2.33,0,3.49,0a1.53,1.53,0,0,0,1.58-1.59,1.51,1.51,0,0,0-1.65-1.52c-1.89,0-3.78,0-5.67,0a1.53,1.53,0,0,0-1.66,1.6c0,1.13,0,2.27,0,3.56.47-.33.78-.68,1.23-.68,2.11,0,4.22,0,6.32,0a.87.87,0,0,1,.86.92.91.91,0,0,1-.86,1A5.49,5.49,0,0,1,35,40c-1.65,0-3.3,0-4.95,0a1.62,1.62,0,0,0-1.79,1.74,8.51,8.51,0,0,0,0,1.13,1.58,1.58,0,0,0,1.69,1.6c1.87,0,3.73,0,5.59,0a1.57,1.57,0,0,0,1.71-1.56A1.53,1.53,0,0,0,35.54,41.37ZM30.79,36.8c0,.25.07.61-.35.59s-.31-.36-.33-.61,0-.44,0-.65c0-.52.17-.71.71-.7,1.46,0,2.92,0,4.38,0,.27,0,.69.12.68-.33s-.4-.28-.65-.28c-1.65,0-3.3,0-4.95,0-.56,0-.78.2-.75.76s0,1,0,1.54a.41.41,0,0,1-.44.47c-.36,0-.22-.32-.23-.49,0-.57,0-1.14,0-1.7,0-.9.33-1.23,1.22-1.25h5.43c.66,0,1.13.3,1.14,1s-.5,1-1.15,1c-1.29,0-2.59,0-3.89,0C31.11,36.1,30.76,36.18,30.79,36.8Zm4.59,7.09c-1.78,0-3.57,0-5.35,0-.85,0-1.15-.33-1.17-1.2,0-.37,0-.75,0-1.13a.83.83,0,0,1,.67-.83c0,.64,0,1.2,0,1.75s.15.75.69.74h5.11c.24,0,.57,0,.59-.27s-.34-.35-.59-.35H30.86c-.27,0-.67.14-.72-.31a2.84,2.84,0,0,1,.09-1.58c0-.06.25-.07.37,0s.21.24.19.39c-.12.85.39.89,1,.88,1.19,0,2.38,0,3.57,0,.67,0,1.2.2,1.26.95S36.24,43.88,35.38,43.89Z"/><path class="cls-5" d="M59.55,34.77a1.85,1.85,0,0,1,2.14,1.29c.76,1.7,1.58,3.37,2.38,5.06l.46.9a1.36,1.36,0,0,0,.52-.74q1.31-2.74,2.6-5.49a1.61,1.61,0,0,1,1.26-1,.77.77,0,0,1,1,.5c-1.22-.25-1.59.57-2,1.4-.88,1.88-1.76,3.77-2.66,5.64-.15.3-.2.79-.59.81s-.49-.52-.64-.83c-1-2-1.87-3.95-2.82-5.92-.17-.38-.27-.85-.81-.92a1.07,1.07,0,0,0-.75-.21c-.14,0-.37.1-.37-.13S59.44,34.88,59.55,34.77Z"/><path class="cls-5" d="M64.63,39.16c.76-1.62,1.44-3.08,2.14-4.54a1.48,1.48,0,0,1,2.08-.86,2.27,2.27,0,0,0-1.8,1.63c-.64,1.43-1.32,2.83-2,4.24-.1.22-.11.61-.46.58s-.35-.38-.46-.61c-.62-1.32-1.23-2.64-1.84-4s-.61-1.31-1.68-1.92a1.28,1.28,0,0,1,1.75.78c.67,1.32,1.28,2.67,1.92,4C64.35,38.68,64.45,38.83,64.63,39.16Z"/><path class="cls-6" d="M73.41,42.51a61,61,0,0,0-2.71-5.79,1.14,1.14,0,0,0-2-.12,3.7,3.7,0,0,0-.45.77c-.88,1.85-1.75,3.71-2.61,5.56-.23.48-.45.94-1.09.93s-.86-.47-1.08-.94Q62.24,40.21,61,37.49a4.37,4.37,0,0,0-.78-1.22C59,36,58.8,36,58.24,37.14c-.83,1.69-1.6,3.39-2.38,5.1a1.51,1.51,0,0,0,.75,2.08,1.57,1.57,0,0,0,2.13-.87c.32-.68.66-1.34,1-2l1.21-2.64c.76,1.61,1.43,3,2.07,4.44a1.64,1.64,0,0,0,3.18,0c.64-1.42,1.33-2.81,2-4.25a2.36,2.36,0,0,1,.62,1c.59,1.21,1.13,2.45,1.75,3.64a1.45,1.45,0,0,0,1.93.72A1.49,1.49,0,0,0,73.41,42.51Zm-13-3.92c-.73,1.5-1.41,3-2.14,4.53-.34.72-.88,1-1.42.64a1,1,0,0,1-.35-1.47c.77-1.61,1.51-3.22,2.27-4.83A2.93,2.93,0,0,1,59,37c.15-.2.36-.4.61-.24s0,.38,0,.56c-.68,1.47-1.37,2.93-2.06,4.4-.11.22-.21.43-.3.66s-.37.53,0,.69.42-.27.52-.48c.75-1.56,1.48-3.12,2.22-4.68.06-.14.15-.27.26-.47A.87.87,0,0,1,60.39,38.59Zm11.83,5.23a.9.9,0,0,1-1.16-.48c-.41-.82-.8-1.65-1.19-2.48s-.67-1.41-1-2.12a4.17,4.17,0,0,1-.19-.44.51.51,0,0,1,.25-.69c.24-.08.3.25.38.43.7,1.46,1.38,2.93,2.07,4.39a5.12,5.12,0,0,0,.3.57.25.25,0,0,0,.35.11.27.27,0,0,0,.13-.34,4.83,4.83,0,0,0-.23-.52c-.74-1.59-1.49-3.17-2.22-4.77-.1-.21-.44-.5-.11-.69s.58.14.74.44c.24.48.46,1,.69,1.46.54,1.14,1.08,2.29,1.61,3.44.11.24.18.5.23.63A1,1,0,0,1,72.22,43.82Z"/><path class="cls-6" d="M10.5,42.58c-.48-1-1-2-1.44-3.07-.17-.37-.33-.5-.69-.16a2.64,2.64,0,0,1-1.8.63L3.34,40c-1.82,0-2.47.47-3.13,2.13a1.6,1.6,0,0,0,.72,2.19,1.55,1.55,0,0,0,2.13-.89c.38-.77.74-1.56,1.12-2.34.1-.21.18-.42.47-.48a1.4,1.4,0,0,1,1.89.94c.25.53.53,1.06.76,1.61.33.78.81,1.37,1.74,1.3s1.33-.72,1.49-1.56ZM3.4,41.34c-.28.64-.59,1.27-.9,1.9a.93.93,0,0,1-1.33.53.92.92,0,0,1-.46-1.3c.28-.66.45-1.45,1.53-1.71-.33.74-.58,1.29-.84,1.85-.08.18-.16.37.07.49s.35-.06.44-.23c.28-.58.57-1.16.82-1.75.16-.37.39-.68.77-.46S3.49,41.13,3.4,41.34Zm5.87,2.47a.83.83,0,0,1-1.08-.29c-.47-.85-.86-1.74-1.28-2.61a.24.24,0,0,1,.14-.38c.26-.11.41,0,.51.23.3.6.57,1.22.88,1.81.12.24.17.71.57.51s0-.52-.06-.76c-.26-.59-.54-1.18-.83-1.75-.15-.3-.12-.54.17-.68s.39.21.47.39A22.64,22.64,0,0,1,9.9,42.84,1,1,0,0,1,9.27,43.81Z"/><path class="cls-7" d="M17.4,35.24c1-.76,1.45-.71,2.1.14,1.08,1.39,2.12,2.8,3.18,4.2.58.78,1.18,1.54,1.75,2.33a1.64,1.64,0,0,0,1.79.91c-.75.72-1.32.66-1.95-.16-1.22-1.58-2.41-3.18-3.62-4.78-.47-.62-.95-1.24-1.41-1.88A1.56,1.56,0,0,0,17.4,35.24Z"/><path class="cls-5" d="M26.32,34.81a1.35,1.35,0,0,0-1.38-1.25,1.46,1.46,0,0,0-1.58,1A4.38,4.38,0,0,0,23.22,36a6,6,0,0,1-.14,2c-1-1.3-1.88-2.51-2.8-3.7a1.53,1.53,0,0,0-2-.53,2,2,0,0,1,1.67,1l4.53,6a3.39,3.39,0,0,0,.65.71A.74.74,0,0,0,26.34,41C26.37,38.91,26.39,36.86,26.32,34.81ZM25.52,41c-.38,0-.39-.38-.39-.69,0-1.43,0-2.86,0-4.29,0-.17,0-.33,0-.49s.06-.64-.31-.62-.28.4-.28.65c0,1.35,0,2.69,0,4.17a1.34,1.34,0,0,1-.71-1.21c0-1.05,0-2.1,0-3.16,0-.79.4-1.23,1-1.18s.95.52.95,1.17c0,1.68,0,3.35,0,5C25.79,40.58,25.93,41,25.52,41Z"/><path class="cls-4" d="M23.35,42.59c-1.35-1.76-2.67-3.53-4-5.29a3.77,3.77,0,0,0-.71-.78.76.76,0,0,0-1.26.55c0,2,0,4,0,6.07a1.51,1.51,0,0,0,1.5,1.34,1.55,1.55,0,0,0,1.56-1.37c.06-.53.05-1.08.07-1.62s0-.89,0-1.39a1.67,1.67,0,0,1,.71.68l2.15,2.85a1.55,1.55,0,0,0,1.82.72C24.25,44.1,23.87,43.27,23.35,42.59Zm-3.43,0c0,.64-.2,1.22-1,1.22s-1-.54-1-1.19c0-1.67,0-3.34,0-5,0-.25-.09-.65.3-.63s.43.34.43.67c0,.67,0,1.35,0,2,0,.94,0,1.89,0,2.83,0,.22-.09.56.3.53s.25-.31.25-.52c0-1.07,0-2.15,0-3.23v-1a1.36,1.36,0,0,1,.71,1.2C19.92,40.54,19.94,41.59,19.92,42.64Z"/><path class="cls-8" d="M15.48,35.22a1.52,1.52,0,0,0-1.6-1.65,1.59,1.59,0,0,0-1.53,1.73c0,1.24,0,2.48,0,3.72s0,2.53,0,3.8a1.59,1.59,0,0,0,1.53,1.66,1.52,1.52,0,0,0,1.59-1.58Q15.52,39.06,15.48,35.22Zm-.56,7.41c0,.79-.38,1.23-1,1.23s-1-.4-1-1.21c0-2.43,0-4.86,0-7.29,0-.65.23-1.13.93-1.2s1,.42,1,1.17c0,1.24,0,2.49,0,3.73S14.93,41.44,14.92,42.63Z"/><path class="cls-6" d="M7.31,35.88a10.22,10.22,0,0,0-.67-1.47,1.54,1.54,0,0,0-2.79,0c-.61,1.17-1.14,2.38-1.79,3.74A18,18,0,0,1,5.28,38a3.27,3.27,0,0,0,1.12-.16A1.4,1.4,0,0,0,7.31,35.88ZM5.73,37.33c-.1.19-.9.3-1,0-.24-.48.3-.89.52-1.55C5.49,36.44,6,36.84,5.73,37.33Zm.94-.39c-.27.11-.29-.16-.37-.31-.22-.46-.44-.93-.67-1.39s-.54-.48-.78,0S4.29,36.43,4,37c-.17.39-.43.53-.94.33.45-.91.83-1.77,1.27-2.61a.91.91,0,0,1,1.53-.32,4.46,4.46,0,0,1,1,2A.42.42,0,0,1,6.67,36.94Z"/><path class="cls-6" d="M48.32,41.72a22.7,22.7,0,0,0-1.62-1.91c-.56-.56-.64-1,0-1.59a22.66,22.66,0,0,0,1.68-2,1.59,1.59,0,0,0-.1-2.38,1.57,1.57,0,0,0-2.29.35c-.54.6-1.06,1.23-1.56,1.86-.29.36-.51.4-.82,0-.52-.65-1.08-1.28-1.61-1.92a1.78,1.78,0,0,0-1.26-.65,1.61,1.61,0,0,0-1.39.85,1.48,1.48,0,0,0,.2,1.74c.64.8,1.29,1.6,2,2.36.37.4.35.68,0,1.08-.68.73-1.31,1.51-1.92,2.3a1.52,1.52,0,0,0,.19,2.29A1.54,1.54,0,0,0,42,43.81c.55-.63,1.1-1.27,1.62-1.92.28-.35.49-.33.76,0,.51.63,1,1.25,1.57,1.86a1.55,1.55,0,0,0,2.34.34A1.57,1.57,0,0,0,48.32,41.72Zm-8.21-5.8a1.18,1.18,0,0,1-.37-.79.9.9,0,0,1,.48-.87.81.81,0,0,1,1.05.08c.73.78,1.41,1.61,2.12,2.43.18.21.11.4-.09.56s-.34,0-.46-.15c-.58-.68-1.15-1.36-1.73-2-.14-.16-.3-.48-.58-.24s0,.44.15.61c.58.71,1.17,1.41,1.76,2.11.19.23.32.45,0,.69s-.42-.09-.55-.24C41.31,37.37,40.71,36.64,40.11,35.92Zm7.78,7.7c-.46.45-1,.32-1.58-.32s-1.24-1.43-1.83-2.17c-.37-.46-.66-.44-1,0-.63.78-1.28,1.53-1.93,2.29a1,1,0,0,1-1.48.18,1,1,0,0,1,0-1.45l6.4-7.62a1,1,0,0,1,1.15-.34.85.85,0,0,1,.62.88,1.23,1.23,0,0,1-.41.91c-.67.81-1.33,1.63-2,2.41a.75.75,0,0,0,0,1.18c.72.8,1.4,1.64,2.08,2.47C48.25,42.56,48.45,43.09,47.89,43.62Z"/><path class="cls-5" d="M47.28,43.15c-.26,0-.38-.22-.51-.38-.74-.86-1.49-1.71-2.18-2.61-.43-.55-.7-.69-1.19,0-.69.93-1.47,1.79-2.23,2.67-.16.18-.31.56-.63.26s0-.45.17-.61q3.07-3.67,6.16-7.32c.13-.16.28-.42.52-.24s.07.43-.09.61c-.81,1-1.6,2-2.45,2.91-.43.47-.38.78,0,1.22.85.94,1.64,1.94,2.46,2.91.12.15.26.29.14.5S47.34,43.11,47.28,43.15Z"/><path class="cls-3" d="M14.25,39v3.47c0,.27,0,.63-.33.63s-.29-.39-.29-.63c0-2.31,0-4.63,0-6.94,0-.26-.07-.63.31-.63s.31.37.31.63C14.26,36.69,14.25,37.84,14.25,39Z"/><path class="cls-8" d="M53.85,39.09h0c0-1.32,0-2.64,0-4a1.44,1.44,0,0,0-1.64-1.48,1.34,1.34,0,0,0-1.47,1.44c0,2.61,0,5.22,0,7.84a1.39,1.39,0,0,0,.67,1.28,1.58,1.58,0,0,0,2.45-1.4C53.87,41.57,53.85,40.33,53.85,39.09ZM53.24,39V42.7c0,.65-.23,1.14-.94,1.16s-1-.48-1-1.12q0-3.72,0-7.46c0-.64.31-1.13,1-1.11s1,.49,1,1.15C53.24,36.54,53.24,37.76,53.24,39Z"/><path class="cls-3" d="M52.57,39c0,1.19,0,2.37,0,3.56,0,.23,0,.55-.3.56s-.32-.3-.32-.54V35.46c0-.24,0-.56.31-.57s.31.38.31.62C52.58,36.67,52.57,37.83,52.57,39Z"/></g></g></svg>